:FULLY-SPECIFIED
:DEGREES
447
root 3.87894 16.4001 -3.2093 140.663 -92.6898 -135.011
lowerback 1.61308 -0.970318 -2.44633
upperback 0.864932 -1.33316 1.394
thorax 0.0716937 -0.682312 2.82129
lowerneck -18.4973 -0.443562 0.593248
upperneck 18.9442 -1.38891 2.24494
head 9.01271 -0.393136 0.4832
rclavicle -6.75868e-015 1.15295e-014
rhumerus -32.2029 -5.16161 -80.5026
rradius 21.8336
rwrist 29.0346
rhand -25.4294 1.90596
rfingers 7.12502
rthumb 1.09681 -28.071
lclavicle -6.75868e-015 1.15295e-014
lhumerus -23.2677 2.12858 90.669
lradius 21.9064
lwrist -13.802
lhand -27.3964 1.59958
lfingers 7.12502
lthumb -0.802907 31.5778
rfemur -26.3781 11.8035 17.3979
rtibia 21.6963
rfoot -2.95268 -13.445
rtoes -11.6128
lfemur 7.59003 -13.1981 -28.1783
ltibia 14.4958
lfoot -16.2905 4.12926
ltoes -19.4347
448
root 3.85547 16.4079 -3.23275 140.27 -92.6615 -134.406
lowerback 1.28174 -1.00796 -2.4413
upperback 0.778266 -1.37558 1.40254
thorax 0.171403 -0.703475 2.82196
lowerneck -18.5248 -0.42681 0.50871
upperneck 18.9552 -1.37321 2.37813
head 9.02303 -0.377028 0.544752
rclavicle -1.19271e-015 1.70955e-014
rhumerus -32.3111 -5.1752 -80.5449
rradius 21.7818
rwrist 28.8959
rhand -25.3908 1.84963
rfingers 7.12502
rthumb 1.13417 -28.1271
lclavicle -1.19271e-015 1.70955e-014
lhumerus -23.6287 2.22561 90.6619
lradius 21.777
lwrist -13.8363
lhand -27.1521 1.60619
lfingers 7.12502
lthumb -0.567035 31.5852
rfemur -26.3183 11.6115 17.6246
rtibia 22.1531
rfoot -3.24971 -13.0668
rtoes -11.1087
lfemur 7.1196 -12.9757 -28.0525
ltibia 15.8184
lfoot -16.21 3.74889
ltoes -20.1246
449
root 3.83181 16.4222 -3.25398 138.954 -92.688 -132.914
lowerback 1.02575 -1.01163 -2.45577
upperback 0.678888 -1.37431 1.36948
thorax 0.212406 -0.701633 2.79203
lowerneck -18.5396 -0.429276 0.489694
upperneck 18.9786 -1.38488 2.43122
head 9.03456 -0.377856 0.564552
rclavicle 1.59028e-014 -9.54166e-015
rhumerus -32.4953 -5.32248 -80.5236
rradius 21.7912
rwrist 28.9487
rhand -25.2478 1.78174
rfingers 7.12502
rthumb 1.27226 -28.1942
lclavicle 1.59028e-014 -9.54166e-015
lhumerus -24.0128 2.40079 90.6383
lradius 21.6174
lwrist -13.8963
lhand -26.8084 1.63528
lfingers 7.12502
lthumb -0.235015 31.6149
rfemur -26.1377 11.4765 17.7553
rtibia 22.5259
rfoot -3.60727 -12.8979
rtoes -10.5644
lfemur 6.61348 -12.6374 -27.9946
ltibia 17.2416
lfoot -16.0323 3.3733
ltoes -21.0362
450
root 3.81189 16.4371 -3.27897 139.196 -92.6867 -132.974
lowerback 0.795507 -1.02027 -2.43791
upperback 0.590955 -1.38038 1.36692
thorax 0.251197 -0.703745 2.77572
lowerneck -18.573 -0.443599 0.471203
upperneck 18.9839 -1.39919 2.42974
head 9.04262 -0.385598 0.565237
rclavicle -1.19271e-015 -9.14409e-015
rhumerus -32.6117 -5.46028 -80.5339
rradius 21.746
rwrist 28.7698
rhand -25.1843 1.79616
rfingers 7.12502
rthumb 1.33356 -28.1794
lclavicle -1.19271e-015 -9.14409e-015
lhumerus -24.3135 2.43234 90.6263
lradius 21.354
lwrist -13.9518
lhand -26.625 1.44202
lfingers 7.12502
lthumb -0.0578669 31.4218
rfemur -25.9299 11.4979 17.9153
rtibia 22.8009
rfoot -4.03611 -12.7276
rtoes -9.65813
lfemur 5.97879 -12.2465 -27.8043
ltibia 18.8556
lfoot -15.8147 2.85325
ltoes -22.01
451
root 3.79032 16.4521 -3.30137 139.828 -92.69 -133.468
lowerback 0.591923 -1.08173 -2.39188
upperback 0.502453 -1.45775 1.38631
thorax 0.279047 -0.741465 2.76672
lowerneck -18.5347 -0.401117 0.36661
upperneck 18.9444 -1.32421 2.49882
head 9.02229 -0.35107 0.615902
rclavicle -2.22639e-014 1.27222e-014
rhumerus -32.731 -5.44545 -80.5311
rradius 21.7158
rwrist 28.8455
rhand -25.0857 1.90705
rfingers 7.12502
rthumb 1.42884 -28.0679
lclavicle -2.22639e-014 1.27222e-014
lhumerus -24.6774 2.61343 90.5964
lradius 21.1781
lwrist -14.0953
lhand -26.2336 1.64261
lfingers 7.12502
lthumb 0.320091 31.6221
rfemur -25.5912 11.5203 18.0955
rtibia 22.9234
rfoot -4.34347 -12.5151
rtoes -8.93499
lfemur 5.27892 -11.789 -27.5997
ltibia 20.6554
lfoot -15.482 2.27546
ltoes -22.5428
452
root 3.77267 16.4681 -3.3255 142.82 -92.7136 -136.332
lowerback 0.441658 -1.0759 -2.207
upperback 0.418071 -1.44611 1.35479
thorax 0.270515 -0.733655 2.62822
lowerneck -18.5496 -0.425211 0.376227
upperneck 18.9269 -1.36096 2.50591
head 9.01946 -0.366641 0.611907
rclavicle -6.95746e-015 -1.23246e-014
rhumerus -32.9101 -5.41777 -80.643
rradius 21.7444
rwrist 28.7117
rhand -25.0011 1.92144
rfingers 7.12502
rthumb 1.51051 -28.053
lclavicle -6.95746e-015 -1.23246e-014
lhumerus -24.9741 2.60989 90.5249
lradius 20.9058
lwrist -14.3963
lhand -25.8015 1.54943
lfingers 7.12502
lthumb 0.737493 31.5279
rfemur -25.1914 11.4455 18.3799
rtibia 22.9679
rfoot -4.66978 -12.3418
rtoes -8.18034
lfemur 4.42006 -11.2705 -27.2726
ltibia 22.6807
lfoot -15.1179 1.65436
ltoes -23.5544
453
root 3.75613 16.4824 -3.35097 145.934 -92.7055 -139.332
lowerback 0.327817 -1.08213 -2.08878
upperback 0.331536 -1.45235 1.3968
thorax 0.244144 -0.735212 2.60362
lowerneck -18.5789 -0.442292 0.339216
upperneck 18.9395 -1.37035 2.48935
head 9.02918 -0.375027 0.611174
rclavicle 5.76476e-015 -1.98785e-015
rhumerus -33.0938 -5.10883 -80.7753
rradius 21.8325
rwrist 28.2418
rhand -24.9313 1.84794
rfingers 7.12502
rthumb 1.57789 -28.126
lclavicle 5.76476e-015 -1.98785e-015
lhumerus -25.2693 2.6638 90.5107
lradius 20.6154
lwrist -14.7281
lhand -25.4189 1.56892
lfingers 7.12502
lthumb 1.10703 31.5458
rfemur -24.7954 11.4439 18.6895
rtibia 22.9325
rfoot -4.84705 -12.3536
rtoes -7.62184
lfemur 3.41862 -10.6633 -26.8706
ltibia 24.9444
lfoot -14.578 0.838103
ltoes -24.2953
454
root 3.74054 16.4918 -3.37369 149.875 -92.7244 -143.197
lowerback 0.208903 -1.09921 -1.87448
upperback 0.266492 -1.47304 1.39845
thorax 0.239977 -0.744312 2.4831
lowerneck -18.5095 -0.433349 0.290103
upperneck 18.8434 -1.35588 2.56226
head 8.9843 -0.364943 0.645901
rclavicle 1.07344e-014 0
rhumerus -33.2518 -4.92909 -80.8989
rradius 21.8317
rwrist 28.2798
rhand -24.9587 1.93162
rfingers 7.12502
rthumb 1.55141 -28.0425
lclavicle 1.07344e-014 0
lhumerus -25.5403 2.77441 90.4155
lradius 20.3497
lwrist -14.9595
lhand -25.0355 1.54244
lfingers 7.12502
lthumb 1.47728 31.5171
rfemur -24.2796 11.4349 19.0252
rtibia 22.8377
rfoot -5.06256 -12.3943
rtoes -6.75969
lfemur 2.32685 -10.0215 -26.4326
ltibia 27.4226
lfoot -13.9844 -0.0365076
ltoes -24.8318
455
root 3.72913 16.4991 -3.39943 155.902 -92.7164 -149.169
lowerback 0.157449 -1.06435 -1.56362
upperback 0.216389 -1.42604 1.41898
thorax 0.207671 -0.719496 2.32922
lowerneck -18.5853 -0.491454 0.329526
upperneck 18.8599 -1.43297 2.49741
head 9.00381 -0.404182 0.607216
rclavicle -1.95803e-014 7.15625e-015
rhumerus -33.3951 -4.93693 -80.9298
rradius 21.8678
rwrist 28.4216
rhand -24.8197 1.91612
rfingers 7.12502
rthumb 1.68574 -28.057
lclavicle -1.95803e-014 7.15625e-015
lhumerus -25.7548 2.71773 90.35
lradius 20.0972
lwrist -15.3611
lhand -24.6232 1.5308
lfingers 7.12502
lthumb 1.87552 31.5023
rfemur -23.7486 11.4567 19.4982
rtibia 22.7018
rfoot -5.21604 -12.4165
rtoes -5.72996
lfemur 1.10721 -9.21804 -25.8071
ltibia 30.0496
lfoot -13.1379 -1.01736
ltoes -24.7613
